<svg xmlns="http://www.w3.org/2000/svg" viewBox="0 0 1600 900" role="img" aria-label="青空と雲、ABCの積み木が並ぶ英語スクールのイメージ">
  <defs>
    <linearGradient id="sky" x1="0" y1="0" x2="0" y2="1">
      <stop offset="0" stop-color="#CFEFF8"/>
      <stop offset="1" stop-color="#EAF8FC"/>
    </linearGradient>
  </defs>
  <rect width="1600" height="900" fill="url(#sky)"/>
  <circle cx="1280" cy="220" r="120" fill="#FFD86B" opacity="0.9"/>
  <g fill="#FFFFFF" opacity="0.9">
    <ellipse cx="360" cy="220" rx="150" ry="60"/>
    <ellipse cx="470" cy="200" rx="110" ry="52"/>
    <ellipse cx="980" cy="160" rx="120" ry="48"/>
    <ellipse cx="1080" cy="180" rx="90" ry="40"/>
  </g>
  <path d="M0 720q300-90 560-40t560-10 480-30v260H0z" fill="#BCE5D8"/>
  <path d="M0 790q360-70 700-20t900-20v150H0z" fill="#8FD3C4"/>
  <!-- ABC blocks -->
  <g font-family="'Baloo 2',sans-serif" font-weight="700" font-size="80" text-anchor="middle">
    <g transform="translate(560 560) rotate(-6)"><rect x="-60" y="-60" width="120" height="120" rx="18" fill="#7ED0E6"/><text x="0" y="28" fill="#FFFDF6">A</text></g>
    <g transform="translate(700 600) rotate(4)"><rect x="-60" y="-60" width="120" height="120" rx="18" fill="#FF9E86"/><text x="0" y="28" fill="#FFFDF6">B</text></g>
    <g transform="translate(840 560) rotate(-3)"><rect x="-60" y="-60" width="120" height="120" rx="18" fill="#FFD86B"/><text x="0" y="28" fill="#2F4A57">C</text></g>
  </g>
  <g fill="#FFFFFF" opacity="0.85"><circle cx="200" cy="430" r="7"/><circle cx="1380" cy="470" r="9"/><circle cx="1180" cy="380" r="6"/></g>
</svg>
