<svg xmlns="http://www.w3.org/2000/svg" viewBox="0 0 1600 900" role="img" aria-label="地球と星、英語で世界とつながるイメージ">
  <defs>
    <linearGradient id="sky2" x1="0" y1="0" x2="0" y2="1">
      <stop offset="0" stop-color="#BFE8F5"/>
      <stop offset="1" stop-color="#E6F6FB"/>
    </linearGradient>
  </defs>
  <rect width="1600" height="900" fill="url(#sky2)"/>
  <g fill="#FFFFFF" opacity="0.85">
    <ellipse cx="300" cy="180" rx="140" ry="56"/>
    <ellipse cx="1180" cy="230" rx="160" ry="60"/>
  </g>
  <!-- globe -->
  <g transform="translate(800 470)">
    <circle r="220" fill="#7ED0E6"/>
    <circle r="220" fill="none" stroke="#FFFDF6" stroke-width="4" opacity="0.6"/>
    <path d="M-220 0H220M0-220V220M-150-120q150 120 300 0M-150 120q150-120 300 0" fill="none" stroke="#FFFDF6" stroke-width="4" opacity="0.7"/>
    <path d="M-90-120q40 50 10 110t-80 70q60 30 120 0t70-110-50-150-70 30z" fill="#8FD3C4" opacity="0.9"/>
    <path d="M80 40q60-10 90 40t-30 90-100-10-20-90 60-20z" fill="#FFD86B" opacity="0.85"/>
  </g>
  <!-- orbit dots -->
  <g fill="#FF9E86"><circle cx="500" cy="280" r="14"/><circle cx="1120" cy="640" r="16"/></g>
  <g fill="#FFD86B"><path d="M300 620l16 34 36 6-26 26 6 36-32-18-32 18 6-36-26-26 36-6z"/></g>
  <g fill="#FFFFFF" opacity="0.9"><circle cx="1320" cy="430" r="8"/><circle cx="220" cy="430" r="6"/><circle cx="1240" cy="540" r="6"/></g>
</svg>
